PathFileType	4	(X/Y/Z)	D:\TRACE\v60_Jaco2_6-2-23\v60_baseline_1-platform.trc
DataRate	CameraRate	NumFrames	NumMarkers	Units	OrigDataRate	OrigDataStartFrame	OrigNumFrames
100.00	100.00	      37	5	mm	100.00	1563	      6251
Frame#	Time	Left_Front			Right_Front			Left_Aft			Right_Aft			Post			
		X1	Y1	Z1	X2	Y2	Z2	X3	Y3	Z3	X4	Y4	Z4	X5	Y5	Z5	

1563	15.620	-800.63788	8.85730	-638.72021	769.36102	10.24809	-644.48535	-708.63202	7.84975	496.19418	733.21698	6.73681	505.23746	-14.12790	1308.28979	-961.85529	
1564	15.630	-800.66864	8.79796	-638.68542	769.36420	10.23662	-644.44702	-708.69196	7.76434	496.21234	733.76404	7.27726	505.08130	-14.08281	1308.24036	-961.82861	
1565	15.640	-800.62061	8.74191	-638.86798	769.37695	10.16337	-644.43884	-708.64142	7.74733	496.17590	733.35773	6.88662	505.05042	-14.10244	1308.21082	-961.78973	
1566	15.650	-800.50818	8.78539	-638.90253	769.36505	10.17830	-644.42450	-708.63306	7.81103	496.13992	733.22864	6.69646	505.21564	-14.03024	1308.21008	-961.74408	
1567	15.660	-800.52209	8.94246	-638.82935	769.36200	10.14732	-644.41772	-708.64325	7.88719	496.18246	733.23438	6.74295	505.23975	-14.06683	1308.23254	-961.72388	
1568	15.670	-800.61456	8.91886	-638.72937	769.30762	10.26506	-644.44440	-708.62280	7.84668	496.17859	733.22729	6.73664	505.22830	-14.11468	1308.21521	-961.76678	
1569	15.680	-800.67676	8.82374	-638.72748	769.40686	10.24563	-644.38336	-708.68121	7.78828	496.16663	733.17377	6.67589	505.22983	-14.08029	1308.17078	-961.77094	
1570	15.690	-800.65552	8.67623	-638.83197	769.39771	10.21355	-644.43109	-708.65076	7.73892	496.16400	733.16614	6.68042	505.22159	-14.03416	1308.13940	-961.86389	
1571	15.700	-800.56238	8.71324	-638.88153	769.31793	10.17060	-644.44086	-708.61121	7.79686	496.17664	733.23627	6.72999	505.20508	-14.05063	1308.10547	-961.93768	
1572	15.710	-800.52777	8.87094	-638.88995	769.36243	10.16409	-644.47046	-708.64435	7.86897	496.15265	733.23492	6.74397	505.21143	-14.04149	1308.18738	-962.01190	
1573	15.720	-800.57587	8.94046	-638.82379	769.35242	10.26679	-644.43091	-708.62793	7.87129	496.14026	733.28815	6.76707	505.21722	-14.06662	1308.23108	-962.10675	
1574	15.730	-800.68732	8.91299	-638.68909	769.34155	10.28358	-644.46790	-708.60223	7.79334	496.22424	733.15747	6.67718	505.22134	-14.08598	1308.24121	-962.10272	
1575	15.740	-800.65363	8.84221	-638.72443	769.36688	10.20944	-644.45758	-708.65808	7.79073	496.20416	733.16473	6.63973	505.23981	-14.05240	1308.23010	-962.00763	
1576	15.750	-800.54254	8.93262	-638.81750	769.39270	10.23333	-644.44537	-708.63123	7.78070	496.16748	733.14301	6.67258	505.21957	-14.17832	1308.15161	-961.76947	
1577	15.760	-800.46655	9.10300	-638.87488	769.37598	10.28390	-644.47052	-708.63800	7.80088	496.15021	733.20874	6.76713	505.21680	-14.15074	1308.08289	-961.57397	
1578	15.770	-800.50836	9.04036	-638.86890	769.37421	10.22813	-644.45300	-708.59277	7.84446	496.14890	733.27185	6.78450	505.21255	-14.10814	1308.14233	-961.56030	
1579	15.780	-800.62982	8.85572	-638.75684	769.44562	10.04218	-644.36877	-708.62830	7.81836	496.17554	733.22906	6.71104	505.22382	-14.12846	1308.17151	-961.62341	
1580	15.790	-800.68469	8.76229	-638.75336	769.46204	9.90079	-644.33997	-708.65521	7.63650	496.18515	733.23395	6.77798	505.25302	-14.38737	1308.18518	-961.66992	
1581	15.800	-800.64197	8.65438	-638.85101	769.36664	10.12723	-644.42438	-708.68793	7.66021	496.18127	733.22742	6.76809	505.22110	-14.16107	1308.14490	-961.72314	
1582	15.810	-800.49219	8.89811	-638.87921	769.40509	10.16479	-644.43787	-708.58728	7.63440	496.14899	733.20685	6.70277	505.24631	-13.97172	1308.22803	-961.96533	
1583	15.820	-800.43988	9.09990	-638.86212	769.43427	10.06678	-644.36053	-708.56946	7.70809	496.18121	733.25183	6.79344	505.24738	-14.18777	1308.33630	-961.99628	
1584	15.830	-800.48541	9.08543	-638.74664	769.42310	10.13399	-644.36945	-708.35114	7.46229	496.42346	733.33734	6.80895	505.23859	-14.19404	1308.29138	-961.99420	
1585	15.840	-800.66266	8.85588	-638.73096	769.29437	10.22110	-644.41992	-708.70490	7.86041	496.21405	733.29034	6.78159	505.24054	-14.18435	1308.28906	-961.88959	
1586	15.850	-800.66809	8.74376	-638.77399	769.37933	10.08140	-644.33923	-708.85303	7.86537	496.12927	733.24432	6.79725	505.24274	-14.08815	1308.12244	-961.75964	
1587	15.860	-800.60040	8.84611	-638.84436	769.34442	9.96649	-644.36920	-708.79901	7.88625	496.13751	733.25012	6.79578	505.22296	-14.25771	1308.02710	-961.63672	
1588	15.870	-800.46509	8.95406	-638.91101	769.36273	10.10084	-644.34601	-708.72284	7.88634	496.09790	733.26013	6.76962	505.22079	-14.15412	1308.09875	-961.66638	
1589	15.880	-800.47009	9.04770	-638.83978	769.42480	10.15905	-644.38647	-708.68958	7.96560	496.16321	733.29816	6.83329	505.25732	-14.08888	1308.27856	-961.74731	
1590	15.890	-800.60516	9.01665	-638.69531	769.39966	10.19982	-644.39722	-708.63232	7.95205	496.18213	733.32751	6.79890	505.26379	-14.17222	1308.28113	-961.93500	
1591	15.900	-800.66003	8.93800	-638.67810	769.40009	10.18636	-644.42212	-708.77179	7.89780	496.18283	733.24915	6.78060	505.26071	-14.22298	1308.28284	-961.96851	
1592	15.910	-800.63672	8.87005	-638.75928	769.41077	10.09707	-644.38684	-708.75037	7.75147	496.15997	733.17847	6.70885	505.22412	-14.02452	1308.20801	-962.07556	
1593	15.920	-800.50745	8.92418	-638.85156	769.30963	10.11304	-644.39050	-708.71503	7.80269	496.14117	733.19067	6.72966	505.23599	-14.11348	1308.15503	-961.95972	
1594	15.930	-800.48633	8.99887	-638.84515	769.39899	10.07390	-644.38232	-708.67273	7.89344	496.15073	733.30145	6.74895	505.22449	-14.22360	1308.23608	-961.85693	
1595	15.940	-800.52307	9.02978	-638.74573	769.43561	10.10706	-644.36340	-708.70471	7.96397	496.16882	733.26727	6.77345	505.24197	-14.10672	1308.26318	-961.73596	
1596	15.950	-800.65588	8.91631	-638.75195	769.39478	10.15151	-644.40094	-708.73566	7.90414	496.18146	733.17749	6.72282	505.21051	-14.15779	1308.22632	-961.69092	
1597	15.960	-800.71326	8.86747	-638.71210	769.38873	10.08763	-644.37927	-708.81598	7.84282	496.16504	733.13086	6.72034	505.23547	-14.25943	1308.12244	-961.56946	
1598	15.970	-800.60211	8.81183	-638.83044	769.31824	10.05944	-644.41254	-708.78168	7.79656	496.11270	733.25110	6.75536	505.21616	-14.24884	1308.09924	-961.63843	
1599	15.980	-800.52246	8.87865	-638.81989	769.38770	10.05536	-644.37897	-708.69843	7.83367	496.14755	733.28796	6.79783	505.21866	-14.15139	1308.13257	-961.72229	
